<svg width="18.673828" height="17.858398" viewBox="0 0 18.6738 17.8584" fill="none" xmlns="http://www.w3.org/2000/svg" xmlns:xlink="http://www.w3.org/1999/xlink">
	<desc>
			Created with Pixso.
	</desc>
	<defs/>
	<path id="Star 1" d="M8.38574 0.690918L6.86719 5.36426C6.7334 5.77637 6.34961 6.05566 5.91602 6.05566L1.00195 6.05566C0.0332031 6.05566 -0.369629 7.29492 0.414062 7.86426L4.38965 10.7529C4.74023 11.0078 4.88721 11.459 4.75293 11.8711L3.23438 16.5449C2.93506 17.4663 3.98975 18.2324 4.77344 17.6631L8.74902 14.7744C9.09961 14.5195 9.57422 14.5195 9.9248 14.7744L13.9004 17.6631C14.6841 18.2324 15.7388 17.4663 15.4395 16.5449L13.9209 11.8711C13.7866 11.459 13.9336 11.0078 14.2842 10.7529L18.2598 7.86426C19.0435 7.29492 18.6406 6.05566 17.6719 6.05566L12.7578 6.05566C12.3242 6.05566 11.9404 5.77637 11.8066 5.36426L10.2881 0.690918C9.98877 -0.230469 8.68506 -0.230469 8.38574 0.690918Z" fill="#FFA900" fill-opacity="1.000000" fill-rule="evenodd"/>
</svg>
