<svg width="27.000000" height="25.418457" viewBox="0 0 27 25.4185" fill="none" xmlns="http://www.w3.org/2000/svg" xmlns:xlink="http://www.w3.org/1999/xlink">
	<desc>
			Created with Pixso.
	</desc>
	<defs/>
	<path id="Vector" d="M4.92993 0C2.19897 0 0 2.07031 0 4.64111L0 20.7773C0 23.3481 2.19897 25.4185 4.92993 25.4185L14.2197 25.4185L14.2197 15.4814L11.4287 15.4814L11.4287 11.9038L14.2197 11.9038L14.2197 8.84717C14.2197 6.4458 15.8689 4.24072 19.6677 4.24072C21.2061 4.24072 22.3433 4.37988 22.3433 4.37988L22.2539 7.7207C22.2539 7.7207 21.094 7.71045 19.8281 7.71045C18.4583 7.71045 18.2385 8.30469 18.2385 9.29102L18.2385 11.9038L22.3628 11.9038L22.1831 15.4814L18.2385 15.4814L18.2385 25.4185L22.0701 25.4185C24.801 25.4185 27 23.3481 27 20.7773L27 4.64111C27 2.07031 24.801 0 22.0701 0L4.92993 0L4.92993 0Z" fill="#404040" fill-opacity="1.000000" fill-rule="nonzero"/>
</svg>
