<svg width="27.000000" height="25.418457" viewBox="0 0 27 25.4185" fill="none" xmlns="http://www.w3.org/2000/svg" xmlns:xlink="http://www.w3.org/1999/xlink">
	<desc>
			Created with Pixso.
	</desc>
	<defs/>
	<path id="Vector" d="M0 2.12354C0 1.56055 0.237549 1.02002 0.660645 0.62207C1.08374 0.223633 1.65747 0 2.25562 0L24.7417 0C25.0383 -0.000488281 25.332 0.0541992 25.606 0.160645C25.8801 0.26709 26.1292 0.42334 26.3389 0.620605C26.5486 0.817871 26.7148 1.05225 26.8284 1.31006C26.9419 1.56787 27.0002 1.84473 27 2.12354L27 23.2925C27.0002 23.5718 26.9421 23.8481 26.8289 24.106C26.7156 24.3643 26.5493 24.5986 26.3398 24.7959C26.1301 24.9937 25.8811 25.1499 25.6072 25.2568C25.3333 25.3638 25.0396 25.4185 24.7429 25.4185L2.25562 25.4185C1.95947 25.4185 1.66602 25.3633 1.39233 25.2568C1.11841 25.1499 0.869629 24.9932 0.660156 24.7959C0.450684 24.5986 0.284668 24.3643 0.171387 24.1064C0.0581055 23.8491 -0.000244141 23.5728 0 23.2935L0 2.12354ZM10.687 9.69141L14.343 9.69141L14.343 11.4199C14.8708 10.4263 16.2209 9.53174 18.2495 9.53174C22.1387 9.53174 23.0605 11.5112 23.0605 15.1426L23.0605 21.8691L19.1245 21.8691L19.1245 15.9697C19.1245 13.9014 18.5969 12.7349 17.2566 12.7349C15.3975 12.7349 14.6243 13.9927 14.6243 15.9697L14.6243 21.8691L10.687 21.8691L10.687 9.69141ZM3.93701 21.7109L7.87427 21.7109L7.87427 9.53174L3.93701 9.53174L3.93701 21.7095L3.93701 21.7109ZM8.4375 5.55957C8.44482 5.87695 8.38501 6.19238 8.26099 6.48779C8.13721 6.7832 7.9519 7.05225 7.71606 7.27881C7.48047 7.50586 7.19873 7.68604 6.88794 7.80908C6.57715 7.93213 6.24341 7.99561 5.90625 7.99561C5.56909 7.99561 5.23535 7.93213 4.92456 7.80908C4.61377 7.68604 4.33203 7.50586 4.09644 7.27881C3.8606 7.05225 3.67529 6.7832 3.55151 6.48779C3.42749 6.19238 3.36768 5.87695 3.375 5.55957C3.38965 4.93701 3.6626 4.34424 4.13574 3.9082C4.60889 3.47266 5.24438 3.22852 5.90625 3.22852C6.56812 3.22852 7.20361 3.47266 7.67676 3.9082C8.1499 4.34424 8.42285 4.93701 8.4375 5.55957Z" fill="#404040" fill-opacity="1.000000" fill-rule="evenodd"/>
</svg>
