<svg width="27.000000" height="25.418457" viewBox="0 0 27 25.4185" fill="none" xmlns="http://www.w3.org/2000/svg" xmlns:xlink="http://www.w3.org/1999/xlink">
	<desc>
			Created with Pixso.
	</desc>
	<defs/>
	<path id="Vector" d="M13.4963 8.47119C11.0176 8.47119 8.99463 10.3755 8.99463 12.709C8.99463 15.043 11.0176 16.9473 13.4963 16.9473C15.9753 16.9473 17.9983 15.043 17.9983 12.709C17.9983 10.3755 15.9753 8.47119 13.4963 8.47119ZM26.9985 12.709C26.9985 10.9541 27.0154 9.21484 26.9106 7.46289C26.8059 5.42822 26.313 3.62256 24.7324 2.13428C23.1484 0.643066 21.2336 0.182129 19.0723 0.0834961C17.208 -0.0151367 15.3606 0.000976562 13.4998 0.000976562C11.6355 0.000976562 9.78809 -0.0151367 7.92725 0.0834961C5.76587 0.182129 3.84766 0.646484 2.26709 2.13428C0.683105 3.62549 0.193604 5.42822 0.0888672 7.46289C-0.0158691 9.21826 0.000976562 10.9575 0.000976562 12.709C0.000976562 14.4609 -0.0158691 16.2036 0.0888672 17.9551C0.193604 19.9902 0.686523 21.7959 2.26709 23.2842C3.85107 24.7754 5.76587 25.2363 7.92725 25.335C9.7915 25.4336 11.6389 25.4175 13.4998 25.4175C15.364 25.4175 17.2114 25.4336 19.0723 25.335C21.2336 25.2363 23.1519 24.772 24.7324 23.2842C26.3164 21.793 26.8059 19.9902 26.9106 17.9551C27.0188 16.2036 26.9985 14.4644 26.9985 12.709ZM13.4963 19.2305C9.66333 19.2305 6.56958 16.3179 6.56958 12.709C6.56958 9.10059 9.66333 6.18799 13.4963 6.18799C17.3296 6.18799 20.4231 9.10059 20.4231 12.709C20.4231 16.3179 17.3296 19.2305 13.4963 19.2305ZM20.7068 7.44385C19.8118 7.44385 19.0891 6.76367 19.0891 5.9209C19.0891 5.07861 19.8118 4.39795 20.7068 4.39795C21.6018 4.39795 22.3245 5.07861 22.3245 5.9209C22.3247 6.12109 22.283 6.31934 22.2019 6.50439C22.1206 6.68896 22.0015 6.85693 21.8513 6.99854C21.7009 7.14014 21.5225 7.25195 21.3262 7.32861C21.1296 7.40527 20.9192 7.44434 20.7068 7.44385Z" fill="#404040" fill-opacity="1.000000" fill-rule="nonzero"/>
</svg>
