<svg width="31.804932" height="24.340820" viewBox="0 0 31.8049 24.3408" fill="none" xmlns="http://www.w3.org/2000/svg" xmlns:xlink="http://www.w3.org/1999/xlink">
	<desc>
			Created with Pixso.
	</desc>
	<defs/>
	<path id="Vector" d="M31.8049 2.88721C30.6353 3.375 29.3789 3.70508 28.0579 3.854C29.4209 3.08594 30.4404 1.87793 30.9268 0.454102C29.6462 1.17041 28.2446 1.67432 26.7832 1.94434C25.8005 0.956543 24.4988 0.301758 23.0803 0.081543C21.6616 -0.138184 20.2056 0.0888672 18.9382 0.727539C17.6707 1.3667 16.6628 2.38135 16.0708 3.61475C15.4788 4.84814 15.3359 6.23096 15.6643 7.54883C13.0698 7.42627 10.5315 6.7915 8.21436 5.68555C5.89746 4.57959 3.85327 3.02734 2.2146 1.12939C1.6543 2.03955 1.33203 3.09424 1.33203 4.21777C1.33154 5.229 1.59595 6.2251 2.10229 7.11719C2.60864 8.00928 3.34106 8.77002 4.23438 9.33154C3.19824 9.30078 2.18506 9.03711 1.27881 8.56299L1.27881 8.64209C1.27881 10.0605 1.80005 11.4355 2.75415 12.5332C3.70825 13.6313 5.03638 14.3848 6.51343 14.6655C5.55225 14.9106 4.54443 14.9468 3.56616 14.771C3.98291 15.9917 4.79468 17.0591 5.8877 17.8237C6.98096 18.5884 8.30054 19.0122 9.66211 19.0356C7.35083 20.7441 4.49609 21.6704 1.55762 21.6665C1.03711 21.6665 0.51709 21.6382 0 21.5811C2.98291 23.3862 6.45508 24.3447 10.0012 24.3408C22.0054 24.3408 28.5679 14.981 28.5679 6.86328C28.5679 6.59912 28.5608 6.33301 28.5483 6.06934C29.8247 5.2002 30.9265 4.12402 31.802 2.89111L31.8049 2.88721Z" fill="#404040" fill-opacity="1.000000" fill-rule="nonzero"/>
</svg>
